<svg width="32" height="32" viewBox="0 0 32 32" fill="none" xmlns="http://www.w3.org/2000/svg">
<path d="M15.4 10.4044C15.4 12.8344 13.0725 14.8044 10.2 14.8044C9.295 14.8044 8.4425 14.6094 7.7025 14.2644L5 14.8044L5.94 12.9269C5.3475 12.2119 5 11.3419 5 10.4044C5 7.9744 7.3275 6.00439 10.2 6.00439C13.0725 6.00439 15.4 7.9744 15.4 10.4044ZM16.2 10.4044C16.2 10.2744 16.195 10.1444 16.185 10.0169C18.8775 10.1819 21 12.0844 21 14.4044C21 15.3419 20.6525 16.2119 20.06 16.9269L21 18.8044L18.2975 18.2644C17.5575 18.6094 16.705 18.8044 15.8 18.8044C13.41 18.8044 11.395 17.4394 10.7875 15.5794C13.7225 15.3269 16.2 13.2119 16.2 10.4044Z" fill="#00ACFF"/>
<path d="M22.9978 13.0031C22.9978 10.3512 21.9443 7.80793 20.0691 5.93275C18.1939 4.05757 15.6506 3.0041 12.9987 3.0041C10.3468 3.0041 7.80353 4.05757 5.92835 5.93275C4.05317 7.80793 2.99971 10.3512 2.99971 13.0031C2.99971 15.655 4.05317 18.1983 5.92835 20.0735C7.80353 21.9487 10.3468 23.0021 12.9987 23.0021C15.6506 23.0021 18.1939 21.9487 20.0691 20.0735C21.9443 18.1983 22.9978 15.655 22.9978 13.0031ZM21.0667 23.1959C18.8544 24.952 16.0484 26.0019 12.9987 26.0019C5.81818 26.0019 0 20.1837 0 13.0031C0 5.82258 5.81818 0.00439453 12.9987 0.00439453C20.1793 0.00439453 25.9975 5.82258 25.9975 13.0031C25.9975 16.0528 24.9476 18.8588 23.1915 21.0711L31.5594 29.439C32.1469 30.0265 32.1469 30.9764 31.5594 31.5576C30.972 32.1388 30.0221 32.145 29.4409 31.5576L21.0667 23.1959Z" fill="#183B56"/>
</svg>
