<svg width="32" height="28" viewBox="0 0 32 28" fill="none" xmlns="http://www.w3.org/2000/svg">
<path d="M32 13C32 20.1808 24.8379 25.9992 16.0009 25.9992C13.6823 25.9992 11.4824 25.5993 9.49505 24.8805C8.75135 25.4243 7.53892 26.168 6.1015 26.7929C4.60159 27.4429 2.79544 27.9991 1.0018 27.9991C0.595569 27.9991 0.23309 27.7554 0.076849 27.3804C-0.079392 27.0054 0.00810296 26.5804 0.289337 26.293L0.308086 26.2742C0.326834 26.2555 0.351833 26.2305 0.389331 26.1867C0.458077 26.1117 0.564321 25.993 0.695563 25.8305C0.951798 25.518 1.29553 25.0555 1.64551 24.4806C2.27047 23.4431 2.86419 22.0807 2.98293 20.5495C1.10804 18.4247 0.00185334 15.8186 0.00185334 13C0.00185334 5.81915 7.16394 0.000732422 16.0009 0.000732422C24.8379 0.000732422 32 5.81915 32 13Z" fill="#00ACFF"/>
<path d="M13.8571 9.98937V11.3189H18.1429V9.98937C18.1429 8.76508 17.1839 7.77346 16 7.77346C14.8161 7.77346 13.8571 8.76508 13.8571 9.98937ZM12.1429 11.3189V9.98937C12.1429 7.78731 13.8705 6.00073 16 6.00073C18.1295 6.00073 19.8571 7.78731 19.8571 9.98937V11.3189H20.2857C21.2312 11.3189 22 12.1139 22 13.0916V18.4098C22 19.3876 21.2312 20.1826 20.2857 20.1826H11.7143C10.7688 20.1826 10 19.3876 10 18.4098V13.0916C10 12.1139 10.7688 11.3189 11.7143 11.3189H12.1429Z" fill="white"/>
</svg>
