<svg width="26" height="22" viewBox="0 0 26 22" fill="none" xmlns="http://www.w3.org/2000/svg">
<path d="M22.1911 11.8774H20.1854C20.3898 12.4371 20.5015 13.0412 20.5015 13.6707V21.2511C20.5015 21.5136 20.4558 21.7656 20.3727 21.9999H23.6886C24.9272 21.9999 25.9349 20.9922 25.9349 19.7536V15.6212C25.9349 13.5569 24.2554 11.8774 22.1911 11.8774Z" fill="#1AD03F"/>
<path d="M5.43342 13.6708C5.43342 13.0412 5.54511 12.4372 5.74955 11.8774H3.74385C1.67949 11.8774 0 13.5569 0 15.6213V19.7537C0 20.9923 1.00766 22 2.24631 22H5.56223C5.47911 21.7656 5.43342 21.5137 5.43342 21.2512V13.6708Z" fill="#1AD03F"/>
<path d="M15.2601 9.92694H10.6748C8.61044 9.92694 6.93095 11.6064 6.93095 13.6708V21.2512C6.93095 21.6647 7.26618 22 7.67972 22H18.2552C18.6687 22 19.004 21.6647 19.004 21.2512V13.6708C19.004 11.6064 17.3245 9.92694 15.2601 9.92694Z" fill="#1AD03F"/>
<path d="M12.9675 0C10.4848 0 8.46501 2.01978 8.46501 4.50249C8.46501 6.18649 9.39447 7.65723 10.7671 8.4294C11.4182 8.79563 12.1687 9.00494 12.9675 9.00494C13.7662 9.00494 14.5168 8.79563 15.1678 8.4294C16.5405 7.65723 17.4699 6.18644 17.4699 4.50249C17.4699 2.01983 15.4501 0 12.9675 0Z" fill="#1AD03F"/>
<path d="M5.06126 4.19664C3.20453 4.19664 1.69403 5.70715 1.69403 7.56388C1.69403 9.4206 3.20453 10.9311 5.06126 10.9311C5.53224 10.9311 5.98073 10.8336 6.38814 10.6582C7.09254 10.3549 7.67334 9.81809 8.03273 9.14565C8.28499 8.67371 8.42849 8.13531 8.42849 7.56388C8.42849 5.7072 6.91799 4.19664 5.06126 4.19664Z" fill="#1AD03F"/>
<path d="M20.8737 4.19664C19.0169 4.19664 17.5064 5.70715 17.5064 7.56388C17.5064 8.13536 17.6499 8.67376 17.9022 9.14565C18.2616 9.81814 18.8424 10.355 19.5468 10.6582C19.9542 10.8336 20.4027 10.9311 20.8737 10.9311C22.7304 10.9311 24.2409 9.4206 24.2409 7.56388C24.2409 5.70715 22.7304 4.19664 20.8737 4.19664Z" fill="#1AD03F"/>
</svg>
