<svg width="26" height="39" viewBox="0 0 26 39" fill="none" xmlns="http://www.w3.org/2000/svg">
<path d="M13 15.1733C14.9489 15.1733 16.818 14.3991 18.1961 13.021C19.5742 11.6429 20.3484 9.77385 20.3484 7.82494C20.3484 5.87603 19.5742 4.00694 18.1961 2.62885C16.818 1.25076 14.9489 0.476563 13 0.476562C11.0511 0.476563 9.18198 1.25076 7.80389 2.62885C6.42581 4.00694 5.6516 5.87603 5.6516 7.82494C5.6516 9.77385 6.42581 11.6429 7.80389 13.021C9.18198 14.3991 11.0511 15.1733 13 15.1733ZM10.3764 17.929C4.72158 17.929 0.14032 22.5102 0.14032 28.165C0.14032 29.1065 0.903862 29.8701 1.84537 29.8701H24.1546C25.0961 29.8701 25.8596 29.1065 25.8596 28.165C25.8596 22.5102 21.2784 17.929 15.6236 17.929H10.3764Z" fill="#183B56"/>
<path d="M7.08363 24.9653L6.69689 24.6484C7.01661 24.2582 7.53097 24.1454 7.96954 24.2849C7.9696 24.2849 7.96966 24.285 7.96971 24.285L9.39682 24.7385C9.70321 24.5228 10.03 24.3334 10.3731 24.1746L10.6933 22.7119L10.6934 22.7115C10.7931 22.258 11.1493 21.874 11.6443 21.7921C12.0866 21.7154 12.5401 21.6772 13.0015 21.6772C13.4638 21.6772 13.917 21.7155 14.3578 21.789C14.8532 21.8705 15.2098 22.2548 15.3095 22.7085L15.3096 22.7089L15.6299 24.1717C15.973 24.3304 16.2997 24.5198 16.6061 24.7355L18.0332 24.282C18.0333 24.282 18.0334 24.2819 18.0334 24.2819C18.4757 24.1413 18.9869 24.2612 19.3039 24.6427L19.3047 24.6437C19.563 24.9562 19.7994 25.2884 20.0106 25.6404L20.0144 25.6467L20.0143 25.6467L20.1552 25.8895L20.1601 25.8979L20.16 25.898C20.3545 26.2486 20.5242 26.6134 20.6654 26.9953L20.7765 27.2958L20.7324 27.3399C20.75 27.6958 20.6011 28.042 20.3371 28.2799C20.3366 28.2803 20.3362 28.2807 20.3358 28.2811L19.2286 29.2886C19.2455 29.4737 19.2544 29.6618 19.2544 29.8519C19.2544 30.0419 19.2455 30.23 19.2286 30.4152L20.3358 31.4226C20.3362 31.423 20.3367 31.4234 20.3372 31.4239C20.6854 31.7378 20.8335 32.2403 20.6627 32.7046L20.6624 32.7054C20.5212 33.0874 20.3515 33.4522 20.157 33.8028L20.1523 33.8113L20.1522 33.8112L20.0113 34.054L20.0077 34.0604L20.0076 34.0603C19.7964 34.4123 19.56 34.7445 19.3017 35.057C18.9819 35.4459 18.4682 35.5581 18.0302 35.4188L16.6031 34.9653C16.2968 35.181 15.97 35.3703 15.6269 35.5291L15.3066 36.9919L15.3066 36.9923C15.2068 37.4462 14.8498 37.8307 14.3539 37.9119C13.9134 37.9853 13.4605 38.0235 12.9985 38.0235C12.5362 38.0235 12.083 37.9852 11.6422 37.9118C11.1468 37.8302 10.7901 37.446 10.6904 36.9923L10.6903 36.9919L10.3701 35.5291C10.0272 35.3704 9.70061 35.1812 9.39438 34.9657L7.97056 35.4215L7.96971 35.4218C7.52739 35.5625 7.01614 35.4426 6.69907 35.061L6.69823 35.06C6.43998 34.7475 6.20353 34.4153 5.99235 34.0633L5.98858 34.0571L5.98862 34.057L5.84772 33.8142L5.84284 33.8058L5.84292 33.8057C5.64851 33.4552 5.47879 33.0904 5.33755 32.7084L5.33726 32.7076C5.16646 32.2432 5.31457 31.7407 5.66288 31.4268C5.66332 31.4264 5.66376 31.426 5.6642 31.4256L6.77149 30.418C6.75456 30.2315 6.74551 30.0427 6.74551 29.8519C6.74551 29.6618 6.75448 29.4737 6.77132 29.2886L5.66287 28.2799C5.31457 27.966 5.16646 27.4635 5.33726 26.9991L5.33755 26.9983C5.47879 26.6164 5.64851 26.2516 5.84292 25.901L5.84764 25.8925L5.84772 25.8925L5.98862 25.6497L5.9923 25.6434L5.99235 25.6434C6.20353 25.2914 6.43998 24.9592 6.69823 24.6467L7.08363 24.9653ZM7.08363 24.9653C7.2605 24.7494 7.5543 24.6775 7.81811 24.7614L7.08363 24.9653ZM18.1848 24.7584C18.4487 24.6745 18.7425 24.7494 18.9193 24.9623C19.1622 25.2561 19.384 25.5679 19.5819 25.8976L18.1848 24.7584ZM7.81811 34.9453C7.5543 35.0292 7.2605 34.9543 7.08363 34.7414C6.8408 34.4476 6.61895 34.1359 6.42109 33.8061L7.81811 34.9453ZM5.99839 27.9092C5.79153 27.7234 5.71059 27.4326 5.80652 27.1717C5.93843 26.815 6.09732 26.4732 6.28019 26.1435L5.99839 27.9092ZM14.3438 31.1942C13.9878 31.5502 13.5049 31.7502 13.0015 31.7502C12.498 31.7502 12.0152 31.5502 11.6592 31.1942C11.3032 30.8382 11.1032 30.3553 11.1032 29.8519C11.1032 29.3484 11.3032 28.8656 11.6592 28.5096C12.0152 28.1535 12.498 27.9535 13.0015 27.9535C13.5049 27.9535 13.9878 28.1535 14.3438 28.5096C14.6998 28.8656 14.8998 29.3484 14.8998 29.8519C14.8998 30.3553 14.6998 30.8382 14.3438 31.1942Z" fill="#00ACFF" stroke="#ECECEC"/>
</svg>
