<svg width="40" height="40" viewBox="0 0 40 40" fill="none" xmlns="http://www.w3.org/2000/svg">
<circle cx="20" cy="20" r="20" fill="#01A5FF"/>
<path d="M10.3834 20.0009C10.3891 17.2138 11.3649 14.5156 13.1432 12.3695C13.3469 12.1245 13.4448 11.8085 13.4156 11.4913C13.3863 11.174 13.2322 10.8813 12.9872 10.6776C12.7422 10.474 12.4263 10.376 12.109 10.4052C11.7917 10.4345 11.499 10.5886 11.2953 10.8336C9.16517 13.4137 8 16.6551 8 20.0009C8 23.3467 9.16517 26.5881 11.2953 29.1682C11.4082 29.3036 11.5494 29.4126 11.7091 29.4872C11.8688 29.5619 12.043 29.6004 12.2193 29.6001C12.4996 29.6007 12.7713 29.503 12.9872 29.3242C13.1087 29.2234 13.2091 29.0997 13.2828 28.9601C13.3564 28.8205 13.4017 28.6678 13.4162 28.5106C13.4307 28.3534 13.414 28.195 13.3672 28.0442C13.3203 27.8935 13.2442 27.7535 13.1432 27.6323C11.3649 25.4862 10.3891 22.788 10.3834 20.0009Z" fill="white"/>
<path d="M19.9827 22.4005C21.3081 22.4005 22.3825 21.326 22.3825 20.0006C22.3825 18.6753 21.3081 17.6008 19.9827 17.6008C18.6573 17.6008 17.5829 18.6753 17.5829 20.0006C17.5829 21.326 18.6573 22.4005 19.9827 22.4005Z" fill="white"/>
<path d="M26.0542 15.777C25.985 15.624 25.8846 15.4873 25.7592 15.3755C25.6339 15.2638 25.4865 15.1796 25.3266 15.1284C25.1667 15.0772 24.9979 15.0602 24.831 15.0783C24.6641 15.0965 24.5028 15.1495 24.3577 15.2339C24.2125 15.3183 24.0867 15.4322 23.9883 15.5682C23.89 15.7043 23.8213 15.8595 23.7867 16.0238C23.752 16.1881 23.7523 16.3578 23.7874 16.522C23.8225 16.6862 23.8916 16.8412 23.9904 16.9769C24.5169 17.889 24.7941 18.9236 24.7941 19.9767C24.7941 21.0298 24.5169 22.0644 23.9904 22.9765C23.9076 23.1118 23.8525 23.2621 23.8283 23.4188C23.804 23.5755 23.811 23.7355 23.849 23.8895C23.8869 24.0435 23.955 24.1884 24.0493 24.3159C24.1436 24.4434 24.2622 24.551 24.3983 24.6323C24.5892 24.7392 24.8036 24.7969 25.0223 24.8003C25.2294 24.8015 25.4332 24.7491 25.6141 24.6482C25.7949 24.5473 25.9465 24.4013 26.0542 24.2244C26.7844 22.9452 27.1685 21.4977 27.1685 20.0247C27.1685 18.5517 26.7844 17.1042 26.0542 15.825V15.777Z" fill="white"/>
<path d="M15.567 15.3693C15.4317 15.2866 15.2814 15.2315 15.1247 15.2072C14.9679 15.183 14.808 15.19 14.654 15.228C14.5 15.2659 14.3551 15.334 14.2276 15.4283C14.1001 15.5226 13.9925 15.6412 13.9112 15.7773C13.1809 17.0565 12.7969 18.504 12.7969 19.977C12.7969 21.4499 13.1809 22.8974 13.9112 24.1766C14.0128 24.3625 14.1618 24.5181 14.343 24.6277C14.5243 24.7373 14.7313 24.7969 14.9431 24.8006C15.1618 24.7972 15.3762 24.7394 15.567 24.6326C15.7031 24.5512 15.8218 24.4437 15.9161 24.3162C16.0104 24.1887 16.0784 24.0437 16.1164 23.8898C16.1543 23.7358 16.1614 23.5758 16.1371 23.4191C16.1128 23.2624 16.0577 23.112 15.975 22.9767C15.4484 22.0647 15.1712 21.0301 15.1712 19.977C15.1712 18.9238 15.4484 17.8893 15.975 16.9772C16.1271 16.7082 16.1696 16.3909 16.0936 16.0914C16.0176 15.7919 15.829 15.5333 15.567 15.3693Z" fill="white"/>
<path d="M28.6816 10.8334C28.5808 10.712 28.457 10.6118 28.3174 10.5383C28.1778 10.4648 28.0251 10.4195 27.868 10.405C27.5507 10.3757 27.2348 10.4737 26.9897 10.6774C26.7447 10.8811 26.5906 11.1737 26.5613 11.491C26.5321 11.8083 26.6301 12.1242 26.8338 12.3693C28.6048 14.5181 29.5733 17.216 29.5733 20.0007C29.5733 22.7853 28.6048 25.4832 26.8338 27.6321C26.7327 27.7533 26.6566 27.8933 26.6097 28.044C26.5629 28.1947 26.5462 28.3532 26.5607 28.5103C26.5752 28.6675 26.6206 28.8203 26.6942 28.9599C26.7678 29.0995 26.8682 29.2232 26.9897 29.3239C27.2056 29.5028 27.4773 29.6004 27.7577 29.5999C27.934 29.6002 28.1081 29.5616 28.2678 29.487C28.4275 29.4123 28.5688 29.3034 28.6816 29.1679C30.8118 26.5878 31.9769 23.3465 31.9769 20.0007C31.9769 16.6548 30.8118 13.4135 28.6816 10.8334Z" fill="white"/>
</svg>
