<svg width="40" height="32" viewBox="0 0 40 32" fill="none" xmlns="http://www.w3.org/2000/svg">
<path d="M3.97235 16.0012C3.98186 11.3561 5.60813 6.85905 8.57199 3.28225C8.91144 2.87385 9.07475 2.34733 9.02599 1.81851C8.97724 1.2897 8.72041 0.801919 8.31201 0.462468C7.90361 0.123018 7.37709 -0.0402933 6.84828 0.00846234C6.31946 0.057218 5.83168 0.314047 5.49223 0.722448C1.94195 5.0226 0 10.4249 0 16.0012C0 21.5776 1.94195 26.9799 5.49223 31.2801C5.68026 31.5058 5.91572 31.6873 6.18187 31.8118C6.44802 31.9362 6.73831 32.0005 7.03211 32C7.49938 32.0009 7.95221 31.8382 8.31201 31.54C8.51451 31.3721 8.6819 31.166 8.8046 30.9333C8.92729 30.7006 9.00288 30.446 9.02703 30.1841C9.05118 29.9221 9.02341 29.658 8.94533 29.4068C8.86725 29.1556 8.74038 28.9223 8.57199 28.7203C5.60813 25.1435 3.98186 20.6464 3.97235 16.0012Z" fill="#1AD03F"/>
<path d="M19.9714 20.0008C22.1803 20.0008 23.9711 18.2101 23.9711 16.0012C23.9711 13.7922 22.1803 12.0015 19.9714 12.0015C17.7624 12.0015 15.9717 13.7922 15.9717 16.0012C15.9717 18.2101 17.7624 20.0008 19.9714 20.0008Z" fill="#1AD03F"/>
<path d="M30.0908 8.96188C29.9755 8.70689 29.8081 8.47892 29.5992 8.29271C29.3903 8.1065 29.1447 7.9662 28.8782 7.88088C28.6117 7.79556 28.3302 7.76711 28.0521 7.79738C27.7739 7.82765 27.5051 7.91596 27.2632 8.05661C27.0213 8.19726 26.8116 8.3871 26.6477 8.61388C26.4838 8.84065 26.3692 9.09931 26.3115 9.37312C26.2538 9.64693 26.2542 9.9298 26.3127 10.2034C26.3712 10.4771 26.4865 10.7354 26.651 10.9617C27.5287 12.4818 27.9907 14.2061 27.9907 15.9613C27.9907 17.7166 27.5287 19.4409 26.651 20.9609C26.5132 21.1864 26.4213 21.437 26.3809 21.6982C26.3404 21.9594 26.3522 22.226 26.4154 22.4826C26.4786 22.7393 26.5921 22.9808 26.7493 23.1933C26.9064 23.4058 27.1041 23.5851 27.331 23.7207C27.6491 23.8988 28.0064 23.995 28.3709 24.0007C28.716 24.0027 29.0558 23.9154 29.3572 23.7471C29.6586 23.5789 29.9113 23.3356 30.0908 23.0408C31.3078 20.9088 31.9479 18.4963 31.9479 16.0413C31.9479 13.5864 31.3078 11.1739 30.0908 9.04187V8.96188Z" fill="#1AD03F"/>
<path d="M12.612 8.28175C12.3865 8.14386 12.136 8.05204 11.8748 8.01159C11.6136 7.97115 11.347 7.98287 11.0903 8.0461C10.8337 8.10933 10.5921 8.2228 10.3796 8.37996C10.1671 8.53712 9.98787 8.73484 9.85225 8.96169C8.63522 11.0937 7.99512 13.5062 7.99512 15.9611C7.99512 18.4161 8.63522 20.8286 9.85225 22.9606C10.0216 23.2703 10.27 23.5297 10.5721 23.7123C10.8741 23.8949 11.2192 23.9944 11.5721 24.0005C11.9366 23.9948 12.2939 23.8986 12.612 23.7205C12.8389 23.5849 13.0366 23.4057 13.1938 23.1932C13.3509 22.9806 13.4644 22.7391 13.5276 22.4825C13.5908 22.2258 13.6026 21.9592 13.5621 21.698C13.5217 21.4368 13.4299 21.1862 13.292 20.9607C12.4144 19.4407 11.9523 17.7164 11.9523 15.9611C11.9523 14.2059 12.4144 12.4816 13.292 10.9615C13.5455 10.5132 13.6163 9.98442 13.4897 9.48522C13.363 8.98602 13.0486 8.55493 12.612 8.28175Z" fill="#1AD03F"/>
<path d="M34.47 0.722448C34.3019 0.520228 34.0957 0.353094 33.863 0.230588C33.6303 0.108082 33.3758 0.0326037 33.114 0.00846234C32.5851 -0.0402933 32.0586 0.123018 31.6502 0.462468C31.2418 0.801919 30.985 1.2897 30.9362 1.81851C30.8875 2.34733 31.0508 2.87385 31.3902 3.28225C34.3419 6.86368 35.9561 11.3602 35.9561 16.0012C35.9561 20.6423 34.3419 25.1388 31.3902 28.7203C31.2218 28.9223 31.095 29.1556 31.0169 29.4068C30.9388 29.658 30.9111 29.9221 30.9352 30.1841C30.9594 30.446 31.0349 30.7006 31.1576 30.9333C31.2803 31.166 31.4477 31.3721 31.6502 31.54C32.01 31.8382 32.4629 32.0009 32.9301 32C33.2239 32.0005 33.5142 31.9362 33.7804 31.8118C34.0465 31.6873 34.282 31.5058 34.47 31.2801C38.0203 26.9799 39.9622 21.5776 39.9622 16.0012C39.9622 10.4249 38.0203 5.0226 34.47 0.722448Z" fill="#1AD03F"/>
</svg>
