<svg width="70" height="70" viewBox="0 0 70 70" fill="none" xmlns="http://www.w3.org/2000/svg">
<circle cx="35" cy="35" r="35" fill="#01A5FF"/>
<path d="M18.2 22.9055V44.4663C18.2 45.5185 19.053 46.3715 20.1052 46.3715H41.3117V42.5897C40.9245 42.1421 40.6121 41.6402 40.3805 41.0928C40.0847 40.3935 39.9349 39.6515 39.9349 38.8872C39.9349 38.1228 40.0848 37.3808 40.3805 36.6815C40.6659 36.0067 41.0743 35.401 41.5942 34.881C42.1142 34.3611 42.72 33.9527 43.3948 33.6673C44.094 33.3715 44.8361 33.2216 45.6004 33.2216C46.3648 33.2216 47.1068 33.3716 47.8061 33.6673C48.4809 33.9527 49.0866 34.361 49.6066 34.881C50.1266 35.401 50.5349 36.0067 50.8203 36.6815C51.1161 37.3808 51.266 38.1228 51.266 38.8872C51.266 39.6515 51.116 40.3935 50.8203 41.0928C50.5888 41.6402 50.2764 42.1421 49.8891 42.5897V46.3715H51.0008C52.0529 46.3715 52.906 45.5185 52.906 44.4663V29.8474H46.3448C45.0842 29.8474 44.0586 28.8218 44.0586 27.5612V21.0002H20.1052C19.0529 21.0002 18.2 21.8532 18.2 22.9055ZM22.4305 26.9794H41.4591V29.0751H22.4305V26.9794ZM22.4305 34.4764H38.5631V35.6195H22.4305V34.4764ZM22.4305 38.0582H31.9447V39.2013H22.4305V38.0582Z" fill="white"/>
<path d="M45.2019 21.1793V27.5613C45.2019 28.1926 45.7137 28.7044 46.345 28.7044H52.7278H52.9061L45.2019 21V21.1793Z" fill="white"/>
<path d="M48.7464 46.3716V43.6003C48.451 43.7978 48.1371 43.9673 47.8065 44.1071C47.1072 44.4029 46.3652 44.5528 45.6009 44.5528C44.8365 44.5528 44.0945 44.4029 43.3952 44.1071C43.0647 43.9673 42.7508 43.7978 42.4553 43.6003V46.3716V49L45.6008 47.7471L48.7463 49V46.3716H48.7464Z" fill="white"/>
<path d="M49.3181 41.4635C49.559 41.1165 49.7527 40.7342 49.8897 40.3259C50.0412 39.8741 50.1234 39.3903 50.1234 38.8874C50.1234 36.3897 48.0986 34.365 45.601 34.365C43.1034 34.365 41.0786 36.3898 41.0786 38.8874C41.0786 39.3903 41.1608 39.8741 41.3123 40.326C41.4493 40.7343 41.643 41.1165 41.8839 41.4635C42.0524 41.7061 42.2439 41.9315 42.4554 42.1364C43.2694 42.9246 44.3784 43.4099 45.601 43.4099C46.8235 43.4099 47.9325 42.9246 48.7465 42.1364C48.958 41.9314 49.1496 41.7061 49.3181 41.4635Z" fill="white"/>
</svg>
