<svg width="70" height="70" viewBox="0 0 70 70" fill="none" xmlns="http://www.w3.org/2000/svg">
<circle cx="35" cy="35" r="35" fill="#01A5FF"/>
<path d="M50.5342 32.5697C49.9694 28.9546 46.8353 26.1799 43.064 26.1799C41.6452 26.1799 40.2819 26.5724 39.0995 27.3046C37.3005 24.2813 34.0619 22.3999 30.464 22.3999C24.906 22.3999 20.384 26.9219 20.384 32.4799C20.384 32.5143 20.384 32.55 20.3853 32.5845C16.8132 33.1862 14 36.3005 14 40.0399C14 44.2087 17.4752 47.5999 21.644 47.5999H49.364C53.5328 47.5999 57.008 44.2087 57.008 40.0399C57.008 36.2686 54.1493 33.1345 50.5342 32.5697Z" fill="white"/>
</svg>
