<svg width="31" height="40" viewBox="0 0 31 40" fill="none" xmlns="http://www.w3.org/2000/svg">
<path d="M14.0625 16.4064H22.6555L14.0625 9.96167V16.4064Z" fill="black"/>
<path d="M1.17188 40H22.2656C22.9134 40 23.4375 39.4759 23.4375 38.8281V18.75H12.8906C12.2429 18.75 11.7188 18.2259 11.7188 17.5781V9.375H1.17188C0.524141 9.375 0 9.89914 0 10.5469V38.8281C0 39.4759 0.524141 40 1.17188 40Z" fill="black"/>
<path d="M30.4688 29.375V9.375H19.9219C19.2741 9.375 18.75 8.85086 18.75 8.20312V0H8.20312C7.55539 0 7.03125 0.524141 7.03125 1.17188V7.03125H12.8906C13.6471 7.03125 14.3966 7.28188 15.0009 7.73617L24.3748 14.7662C25.2548 15.4244 25.7812 16.4761 25.7812 17.5781V30.5469H29.2969C29.9446 30.5469 30.4688 30.0227 30.4688 29.375Z" fill="black"/>
<path d="M21.0938 7.03144H29.6867L21.0938 0.58667V7.03144Z" fill="black"/>
</svg>
