<svg width="44" height="40" viewBox="0 0 44 40" fill="none" xmlns="http://www.w3.org/2000/svg">
<path d="M43.6364 34.5455V27.2727C43.6364 26.7905 43.4448 26.3281 43.1038 25.9871C42.7629 25.6461 42.3004 25.4545 41.8182 25.4545C41.336 25.4545 40.8735 25.6461 40.5325 25.9871C40.1916 26.3281 40 26.7905 40 27.2727V34.5455C40 35.0277 39.8084 35.4901 39.4675 35.8311C39.1265 36.1721 38.664 36.3636 38.1818 36.3636H5.45455C4.97233 36.3636 4.50987 36.1721 4.1689 35.8311C3.82792 35.4901 3.63636 35.0277 3.63636 34.5455V27.2727C3.63636 26.7905 3.44481 26.3281 3.10383 25.9871C2.76286 25.6461 2.30039 25.4545 1.81818 25.4545C1.33597 25.4545 0.873509 25.6461 0.532533 25.9871C0.191558 26.3281 0 26.7905 0 27.2727V34.5455C0 35.9921 0.574674 37.3795 1.5976 38.4024C2.62053 39.4253 4.00791 40 5.45455 40H38.1818C39.6285 40 41.0158 39.4253 42.0388 38.4024C43.0617 37.3795 43.6364 35.9921 43.6364 34.5455ZM32.0364 25.0545L22.9455 32.3273C22.6245 32.5809 22.2273 32.7189 21.8182 32.7189C21.4091 32.7189 21.0119 32.5809 20.6909 32.3273L11.6 25.0545C11.2688 24.7419 11.0669 24.3163 11.0345 23.8619C11.002 23.4076 11.1413 22.9576 11.4247 22.601C11.7082 22.2444 12.1151 22.0072 12.5651 21.9363C13.015 21.8654 13.4752 21.966 13.8545 22.2182L20 27.1273V1.81818C20 1.33597 20.1916 0.873509 20.5325 0.532533C20.8735 0.191558 21.336 0 21.8182 0C22.3004 0 22.7629 0.191558 23.1038 0.532533C23.4448 0.873509 23.6364 1.33597 23.6364 1.81818V27.1273L29.7818 22.2182C29.9649 22.0454 30.1819 21.9124 30.419 21.8279C30.6562 21.7433 30.9083 21.7089 31.1594 21.7268C31.4105 21.7447 31.6552 21.8146 31.8779 21.9321C32.1006 22.0495 32.2965 22.2119 32.4532 22.409C32.6098 22.6061 32.7239 22.8336 32.788 23.077C32.8522 23.3205 32.8651 23.5746 32.8259 23.8233C32.7867 24.072 32.6963 24.3099 32.5604 24.5218C32.4245 24.7338 32.246 24.9152 32.0364 25.0545Z" fill="black"/>
</svg>
