<svg width="70" height="70" viewBox="0 0 70 70" fill="none" xmlns="http://www.w3.org/2000/svg">
<circle cx="35" cy="35" r="35" fill="#01A5FF"/>
<path d="M38.4922 36.1522L39.3676 35.6469L38.621 34.3535L37.7444 34.8596C37.5092 34.9954 37.2148 34.973 37.0029 34.8032C36.7495 34.6 36.468 34.4373 36.1662 34.3194C35.9134 34.2207 35.747 33.9771 35.747 33.7058V32.6943H34.2537V33.7058C34.2537 33.9771 34.0874 34.2207 33.8346 34.3194C33.5328 34.4373 33.2513 34.6 32.9978 34.8032C32.786 34.973 32.4915 34.9954 32.2564 34.8596L31.3798 34.3535L30.6332 35.6469L31.5086 36.1522C31.7434 36.2878 31.8712 36.5534 31.8305 36.8215C31.7837 37.131 31.7803 37.4582 31.8305 37.7907C31.8712 38.0587 31.7434 38.3244 31.5086 38.4599L30.6332 38.9653L31.3798 40.2586L32.2564 39.7525C32.4915 39.6167 32.786 39.6391 32.9978 39.809C33.2513 40.0121 33.5328 40.1748 33.8346 40.2927C34.0874 40.3914 34.2537 40.635 34.2537 40.9064V41.9179H35.747V40.9064C35.747 40.6351 35.9134 40.3915 36.1662 40.2928C36.468 40.1749 36.7495 40.0122 37.0029 39.809C37.2147 39.6392 37.5092 39.6168 37.7444 39.7526L38.621 40.2587L39.3676 38.9653L38.4922 38.46C38.2574 38.3244 38.1296 38.0588 38.1703 37.7907C38.217 37.4812 38.2205 37.154 38.1703 36.8215C38.1296 36.5534 38.2574 36.2878 38.4922 36.1522ZM35.0004 39.2826C33.9106 39.2826 33.0239 38.3959 33.0239 37.3061C33.0239 36.2163 33.9106 35.3296 35.0004 35.3296C36.0902 35.3296 36.9769 36.2163 36.9769 37.3061C36.9769 38.3959 36.0902 39.2826 35.0004 39.2826Z" fill="white"/>
<path d="M35 37.9649C35.3639 37.9649 35.6588 37.6699 35.6588 37.306C35.6588 36.9422 35.3639 36.6472 35 36.6472C34.6362 36.6472 34.3412 36.9422 34.3412 37.306C34.3412 37.6699 34.6362 37.9649 35 37.9649Z" fill="white"/>
<path d="M22.8123 29.4C22.8123 29.0361 23.1073 28.7411 23.4711 28.7411H46.5299C46.8937 28.7411 47.1888 29.0361 47.1888 29.4V44.5529H49.8241V28.7411C49.8241 27.288 48.6419 26.1058 47.1888 26.1058H44.5535V25.1408L46.2366 24.0187C46.4199 23.8965 46.5299 23.6908 46.5299 23.4705V22.0396C47.2967 21.7676 47.8476 21.0353 47.8476 20.1764C47.8476 19.0866 46.9609 18.2 45.8711 18.2C44.7813 18.2 43.8946 19.0866 43.8946 20.1764C43.8946 21.0353 44.4455 21.7676 45.2123 22.0396V23.118L43.5292 24.24C43.3459 24.3622 43.2358 24.5679 43.2358 24.7882V26.1058H37.3064V25.1408L38.9895 24.0187C39.1728 23.8965 39.2829 23.6908 39.2829 23.4705V22.0396C40.0497 21.7676 40.6005 21.0353 40.6005 20.1764C40.6005 19.0866 39.7139 18.2 38.6241 18.2C37.5342 18.2 36.6476 19.0866 36.6476 20.1764C36.6476 21.0353 37.1984 21.7676 37.9652 22.0396V23.118L36.2821 24.24C36.0989 24.3622 35.9888 24.5679 35.9888 24.7882V26.1058H34.0123V24.7882C34.0123 24.5679 33.9022 24.3622 33.7189 24.24L32.0358 23.1179V22.0396C32.8026 21.7676 33.3535 21.0353 33.3535 20.1764C33.3535 19.0866 32.4668 18.2 31.377 18.2C30.2872 18.2 29.4005 19.0866 29.4005 20.1764C29.4005 21.0353 29.9514 21.7676 30.7182 22.0396V23.4705C30.7182 23.6908 30.8283 23.8965 31.0116 24.0187L32.6946 25.1408V26.1058H26.7652V24.7882C26.7652 24.5679 26.6551 24.3622 26.4719 24.24L24.7888 23.1179V22.0396C25.5556 21.7676 26.1064 21.0353 26.1064 20.1764C26.1064 19.0866 25.2198 18.2 24.1299 18.2C23.0401 18.2 22.1535 19.0866 22.1535 20.1764C22.1535 21.0353 22.7043 21.7676 23.4711 22.0396V23.4705C23.4711 23.6908 23.5812 23.8965 23.7645 24.0187L25.4476 25.1408V26.1058H22.8123C21.3592 26.1058 20.177 27.288 20.177 28.7411V44.5529H22.8123V29.4Z" fill="white"/>
<path d="M45.8707 30.0586H24.1295V44.5527H45.8707V30.0586ZM39.5184 37.5306L40.5967 38.1532C40.9118 38.3351 41.0198 38.738 40.8378 39.0531L39.4323 41.4875C39.2506 41.8023 38.8474 41.9107 38.5324 41.7287L37.4536 41.1058C37.3277 41.1873 37.1977 41.2624 37.0644 41.3309V42.5762C37.0644 42.94 36.7694 43.2351 36.4056 43.2351H33.5946C33.2308 43.2351 32.9358 42.94 32.9358 42.5762V41.3309C32.8025 41.2625 32.6725 41.1874 32.5466 41.1059L31.4678 41.7287C31.1533 41.9106 30.7498 41.8028 30.5679 41.4876L29.1624 39.0532C28.9804 38.7381 29.0884 38.3351 29.4035 38.1532L30.4818 37.5307C30.4743 37.3807 30.4743 37.2307 30.4818 37.0807L29.4035 36.4582C29.0884 36.2763 28.9804 35.8734 29.1624 35.5583L30.5679 33.1238C30.7497 32.8089 31.1528 32.7007 31.4678 32.8827L32.5466 33.5056C32.6725 33.4241 32.8025 33.349 32.9358 33.2805V32.0351C32.9358 31.6713 33.2308 31.3762 33.5946 31.3762H36.4056C36.7694 31.3762 37.0644 31.6713 37.0644 32.0351V33.2804C37.1977 33.3488 37.3277 33.4239 37.4536 33.5054L38.5324 32.8826C38.8478 32.7004 39.2507 32.8091 39.4323 33.1237L40.8378 35.5581C41.0198 35.8732 40.9118 36.2762 40.5967 36.4581L39.5184 37.0806C39.5259 37.2307 39.5259 37.3806 39.5184 37.5306Z" fill="white"/>
<path d="M40.144 47.1883L40.6381 45.8706H29.363L29.8572 47.1883H40.144Z" fill="white"/>
<path d="M49.8674 45.8706H42.0447L41.2168 48.0785C41.1204 48.3355 40.8745 48.5059 40.5999 48.5059H29.4C29.1254 48.5059 28.8795 48.3355 28.7831 48.0785L27.9552 45.8706H20.1325C19.0652 45.8706 18.2 46.7358 18.2 47.8031C18.2 50.0106 19.9894 51.8 22.1968 51.8H47.8031C50.0105 51.8 51.7999 50.0106 51.7999 47.8031C51.7999 46.7358 50.9347 45.8706 49.8674 45.8706Z" fill="white"/>
</svg>
