<svg width="40" height="40" viewBox="0 0 40 40" fill="none" xmlns="http://www.w3.org/2000/svg">
<path d="M37.9998 17.9999H22.0001V1.99987C22.0001 0.896116 21.1039 0 19.9998 0C18.8961 0 17.9999 0.896116 17.9999 1.99987V17.9999H1.99987C0.896116 17.9999 0 18.8961 0 19.9998C0 21.1039 0.896116 22.0001 1.99987 22.0001H17.9999V37.9998C17.9999 39.1039 18.8961 40 19.9998 40C21.1039 40 22.0001 39.1039 22.0001 37.9998V22.0001H37.9998C39.1039 22.0001 40 21.1039 40 19.9998C40 18.8961 39.1039 17.9999 37.9998 17.9999Z" fill="black"/>
</svg>
