<svg width="44" height="28" viewBox="0 0 44 28" fill="none" xmlns="http://www.w3.org/2000/svg">
<path d="M5.98464 6.16459C7.68694 6.16459 9.06693 4.7846 9.06693 3.08229C9.06693 1.37999 7.68694 0 5.98464 0C4.28233 0 2.90234 1.37999 2.90234 3.08229C2.90234 4.7846 4.28233 6.16459 5.98464 6.16459Z" fill="#1AD03F"/>
<path d="M7.98005 7.0524H3.99002C2.97625 7.01179 1.9876 7.37401 1.24001 8.05993C0.492414 8.74585 0.0466224 9.69973 0 10.7132V15.9502C0.015852 16.5413 0.216947 17.1125 0.574902 17.5832C0.932858 18.054 1.4296 18.4004 1.99501 18.5736V25.7157C1.96198 26.2819 2.1525 26.8385 2.52559 27.2657C2.89867 27.6929 3.42452 27.9566 3.99002 28H7.98005C8.54555 27.9566 9.0714 27.6929 9.44449 27.2657C9.81758 26.8385 10.0081 26.2819 9.97506 25.7157V18.5736C10.5405 18.4004 11.0372 18.054 11.3952 17.5832C11.7531 17.1125 11.9542 16.5413 11.9701 15.9502V10.7132C11.9235 9.69973 11.4777 8.74585 10.7301 8.05993C9.98247 7.37401 8.99382 7.01179 7.98005 7.0524Z" fill="#1AD03F"/>
<path d="M37.9544 6.16459C39.6567 6.16459 41.0367 4.7846 41.0367 3.08229C41.0367 1.37999 39.6567 0 37.9544 0C36.2521 0 34.8721 1.37999 34.8721 3.08229C34.8721 4.7846 36.2521 6.16459 37.9544 6.16459Z" fill="#9C9CA0"/>
<path d="M39.9498 7.0524H35.9598C34.946 7.01179 33.9573 7.37401 33.2097 8.05993C32.4621 8.74585 32.0163 9.69973 31.9697 10.7132V15.9502C31.9856 16.5413 32.1867 17.1125 32.5446 17.5832C32.9026 18.054 33.3993 18.4004 33.9647 18.5736V25.7157C33.9317 26.2819 34.1222 26.8385 34.4953 27.2657C34.8684 27.6929 35.3942 27.9566 35.9598 28H39.9498C40.5153 27.9566 41.0411 27.6929 41.4142 27.2657C41.7873 26.8385 41.9778 26.2819 41.9448 25.7157V18.5736C42.5102 18.4004 43.0069 18.054 43.3649 17.5832C43.7229 17.1125 43.9239 16.5413 43.9398 15.9502V10.7132C43.8932 9.69973 43.4474 8.74585 42.6998 8.05993C41.9522 7.37401 40.9635 7.01179 39.9498 7.0524Z" fill="#9C9CA0"/>
<path d="M26.9595 4.18156C26.9118 4.17382 26.8635 4.17025 26.8152 4.17088H18.5891L18.7684 4.08745C18.9438 4.00446 19.1033 3.89152 19.2398 3.75373L21.5466 1.44691C21.8504 1.15689 21.9015 0.690335 21.6676 0.34147C21.3954 -0.0302854 20.8733 -0.111003 20.5016 0.161211C20.4715 0.183215 20.443 0.207201 20.4162 0.233012L16.2447 4.40448C15.9187 4.73011 15.9184 5.25835 16.244 5.58435C16.2442 5.58456 16.2445 5.58479 16.2447 5.585L20.4162 9.75647C20.7424 10.0818 21.2707 10.0811 21.596 9.75482C21.6216 9.72914 21.6455 9.70182 21.6676 9.67304C21.9015 9.32417 21.8504 8.85762 21.5466 8.5676L19.244 6.25661C19.1216 6.13407 18.9808 6.03132 18.8268 5.95209L18.5765 5.83946H26.7693C27.1955 5.85529 27.5694 5.55757 27.6495 5.13866C27.7232 4.68384 27.4143 4.25535 26.9595 4.18156Z" fill="#00ACFF"/>
<path d="M16.7006 22.1816C16.7484 22.1738 16.7966 22.1702 16.8449 22.1709H25.0711L24.8917 22.0874C24.7164 22.0045 24.5569 21.8915 24.4204 21.7537L22.1135 19.4469C21.8097 19.1569 21.7587 18.6903 21.9926 18.3415C22.2648 17.9697 22.7868 17.889 23.1586 18.1612C23.1886 18.1832 23.2172 18.2072 23.244 18.233L27.4155 22.4045C27.7415 22.7301 27.7418 23.2584 27.4161 23.5844C27.4159 23.5846 27.4157 23.5848 27.4155 23.585L23.244 27.7565C22.9177 28.0818 22.3895 28.0811 22.0641 27.7548C22.0385 27.7291 22.0146 27.7018 21.9926 27.673C21.7587 27.3242 21.8097 26.8576 22.1135 26.5676L24.4162 24.2566C24.5386 24.1341 24.6793 24.0313 24.8333 23.9521L25.0836 23.8395H16.8909C16.4647 23.8553 16.0907 23.5576 16.0107 23.1387C15.9369 22.6838 16.2458 22.2553 16.7006 22.1816Z" fill="#00ACFF"/>
</svg>
