<svg width="40" height="40" viewBox="0 0 40 40" fill="none" xmlns="http://www.w3.org/2000/svg">
<path d="M35.7151 27.1456V12.8598C35.7151 9.64556 33.1008 7.03125 29.8865 7.03125H10.1151C6.90081 7.03125 4.2865 9.64556 4.2865 12.8598V27.1456C4.2865 30.3598 6.90081 32.9741 10.1151 32.9741H29.8865C33.1008 32.9741 35.7151 30.3598 35.7151 27.1456ZM13.9723 13.9598H13.9865C14.7723 13.9598 15.415 14.6027 15.415 15.3884C15.415 16.1884 14.7723 16.8169 13.9865 16.8169C13.2008 16.8169 12.5437 16.1884 12.5437 15.3884C12.5437 14.6027 13.1865 13.9598 13.9723 13.9598ZM30.7294 25.8455C30.0579 26.2599 29.1865 26.0598 28.7579 25.3884L23.9437 17.7169L18.258 26.8027C17.7151 27.6741 16.4151 27.6884 15.8437 26.8312L13.158 22.7312L11.3436 25.5027C11.0865 25.9312 10.6294 26.2027 10.1151 26.2027C9.3294 26.2027 8.68652 25.5741 8.68652 24.7884C8.68652 24.5027 8.77223 24.217 8.91506 23.9884L11.0436 20.7455C11.5437 20.017 12.3008 19.5884 13.2151 19.6027C14.058 19.617 14.8294 20.0455 15.2865 20.7598L17.015 23.4027L21.8008 15.7455C22.2723 15.0027 23.0722 14.5598 23.9437 14.5598C24.8151 14.5598 25.6151 15.0027 26.0865 15.7455L31.1865 23.8741C31.6008 24.5455 31.4008 25.417 30.7294 25.8455Z" fill="black"/>
<path d="M35.7143 0H31.4286C30.6396 0 30 0.638951 30 1.42857C30 2.21819 30.6396 2.85714 31.4286 2.85714H35.7143C36.5018 2.85714 37.1429 3.49749 37.1429 4.28571V8.57143C37.1429 9.36105 37.7825 10 38.5714 10C39.3604 10 40 9.36105 40 8.57143V4.28571C40 1.92243 38.0776 0 35.7143 0Z" fill="black"/>
<path d="M1.42857 10C2.21749 10 2.85714 9.36105 2.85714 8.57143V4.28571C2.85714 3.49749 3.49819 2.85714 4.28571 2.85714H8.57143C9.36035 2.85714 10 2.21819 10 1.42857C10 0.638951 9.36035 0 8.57143 0H4.28571C1.92243 0 0 1.92243 0 4.28571V8.57143C0 9.36105 0.639648 10 1.42857 10Z" fill="black"/>
<path d="M4.28571 40H8.57143C9.36035 40 10 39.361 10 38.5714C10 37.7818 9.36035 37.1429 8.57143 37.1429H4.28571C3.49819 37.1429 2.85714 36.5025 2.85714 35.7143V31.4286C2.85714 30.639 2.21749 30 1.42857 30C0.639648 30 0 30.639 0 31.4286V35.7143C0 38.0776 1.92243 40 4.28571 40Z" fill="black"/>
<path d="M38.5714 30C37.7825 30 37.1429 30.639 37.1429 31.4286V35.7143C37.1429 36.5025 36.5018 37.1429 35.7143 37.1429H31.4286C30.6396 37.1429 30 37.7818 30 38.5714C30 39.361 30.6396 40 31.4286 40H35.7143C38.0776 40 40 38.0776 40 35.7143V31.4286C40 30.639 39.3604 30 38.5714 30Z" fill="black"/>
</svg>
