<svg width="38" height="40" viewBox="0 0 38 40" fill="none" xmlns="http://www.w3.org/2000/svg">
<path d="M30.4688 25.9375C28.153 25.9375 26.1124 27.0766 24.8307 28.809L13.7492 23.1347C13.9332 22.5076 14.0625 21.8577 14.0625 21.1719C14.0625 20.2417 13.8718 19.3574 13.5423 18.5441L25.1396 11.5653C26.4302 13.08 28.3273 14.0625 30.4688 14.0625C34.346 14.0625 37.5 10.9085 37.5 7.03125C37.5 3.15398 34.346 0 30.4688 0C26.5915 0 23.4375 3.15398 23.4375 7.03125C23.4375 7.92477 23.6215 8.77234 23.9267 9.55922L12.2949 16.5584C11.0054 15.0887 9.1357 14.1406 7.03125 14.1406C3.15398 14.1406 0 17.2946 0 21.1719C0 25.0491 3.15398 28.2031 7.03125 28.2031C9.38516 28.2031 11.4602 27.0305 12.7371 25.2495L23.7821 30.9054C23.5787 31.5621 23.4375 32.2461 23.4375 32.9688C23.4375 36.846 26.5915 40 30.4688 40C34.346 40 37.5 36.846 37.5 32.9688C37.5 29.0915 34.346 25.9375 30.4688 25.9375Z" fill="black"/>
</svg>
