<svg width="54" height="34" viewBox="0 0 54 34" fill="none" xmlns="http://www.w3.org/2000/svg">
<path d="M12.4321 14.4039C14.2735 14.4039 15.8681 13.7434 17.1709 12.4403C18.4738 11.1375 19.1342 9.54337 19.1342 7.70171C19.1342 5.8607 18.4738 4.26636 17.1707 2.96309C15.8676 1.66045 14.2733 1 12.4321 1C10.5904 1 8.99629 1.66045 7.69344 2.9633C6.39058 4.26615 5.72992 5.86048 5.72992 7.70171C5.72992 9.54337 6.39058 11.1377 7.69365 12.4406C8.99671 13.7432 10.591 14.4039 12.4321 14.4039Z" fill="#00ACFF"/>
<path d="M24.159 22.3967C24.1214 21.8545 24.0454 21.2631 23.9335 20.6385C23.8206 20.0093 23.6752 19.4144 23.5011 18.8707C23.3213 18.3088 23.0767 17.7539 22.7744 17.2221C22.4606 16.6701 22.0921 16.1895 21.6786 15.794C21.2461 15.3802 20.7166 15.0475 20.1044 14.8049C19.4943 14.5635 18.8181 14.4412 18.0948 14.4412C17.8108 14.4412 17.5361 14.5578 17.0055 14.9032C16.679 15.1161 16.2971 15.3624 15.8708 15.6347C15.5063 15.867 15.0125 16.0846 14.4026 16.2816C13.8075 16.4742 13.2033 16.5718 12.607 16.5718C12.0107 16.5718 11.4067 16.4742 10.811 16.2816C10.2017 16.0848 9.7079 15.8672 9.34381 15.635C8.92156 15.3651 8.53943 15.1189 8.20804 14.903C7.67815 14.5576 7.40323 14.441 7.11918 14.441C6.39568 14.441 5.71973 14.5635 5.10981 14.8051C4.49798 15.0473 3.9683 15.38 3.53543 15.7942C3.1221 16.1899 2.75334 16.6703 2.43999 17.2221C2.1379 17.7539 1.89334 18.3086 1.71331 18.871C1.53944 19.4146 1.39402 20.0093 1.28108 20.6385C1.1692 21.2622 1.0932 21.8539 1.05562 22.3974C1.01868 22.9298 1 23.4824 1 24.0405C1 25.4931 1.46174 26.669 2.37227 27.5362C3.27155 28.3919 4.46146 28.8261 5.90846 28.8261H19.3068C20.7538 28.8261 21.9433 28.3922 22.8428 27.5362C23.7535 26.6696 24.2153 25.4935 24.2153 24.0403C24.2151 23.4797 24.1962 22.9266 24.159 22.3967Z" fill="#00ACFF"/>
<path d="M12.4321 14.4039C14.2735 14.4039 15.8681 13.7434 17.1709 12.4403C18.4738 11.1375 19.1342 9.54337 19.1342 7.70171C19.1342 5.8607 18.4738 4.26636 17.1707 2.96309C15.8676 1.66045 14.2733 1 12.4321 1C10.5904 1 8.99629 1.66045 7.69344 2.9633C6.39058 4.26615 5.72992 5.86048 5.72992 7.70171C5.72992 9.54337 6.39058 11.1377 7.69365 12.4406C8.99671 13.7432 10.591 14.4039 12.4321 14.4039Z" stroke="white" stroke-width="1.5"/>
<path d="M24.159 22.3967C24.1214 21.8545 24.0454 21.2631 23.9335 20.6385C23.8206 20.0093 23.6752 19.4144 23.5011 18.8707C23.3213 18.3088 23.0767 17.7539 22.7744 17.2221C22.4606 16.6701 22.0921 16.1895 21.6786 15.794C21.2461 15.3802 20.7166 15.0475 20.1044 14.8049C19.4943 14.5635 18.8181 14.4412 18.0948 14.4412C17.8108 14.4412 17.5361 14.5578 17.0055 14.9032C16.679 15.1161 16.2971 15.3624 15.8708 15.6347C15.5063 15.867 15.0125 16.0846 14.4026 16.2816C13.8075 16.4742 13.2033 16.5718 12.607 16.5718C12.0107 16.5718 11.4067 16.4742 10.811 16.2816C10.2017 16.0848 9.7079 15.8672 9.34381 15.635C8.92156 15.3651 8.53943 15.1189 8.20804 14.903C7.67815 14.5576 7.40323 14.441 7.11918 14.441C6.39568 14.441 5.71973 14.5635 5.10981 14.8051C4.49798 15.0473 3.9683 15.38 3.53543 15.7942C3.1221 16.1899 2.75334 16.6703 2.43999 17.2221C2.1379 17.7539 1.89334 18.3086 1.71331 18.871C1.53944 19.4146 1.39402 20.0093 1.28108 20.6385C1.1692 21.2622 1.0932 21.8539 1.05562 22.3974C1.01868 22.9298 1 23.4824 1 24.0405C1 25.4931 1.46174 26.669 2.37227 27.5362C3.27155 28.3919 4.46146 28.8261 5.90846 28.8261H19.3068C20.7538 28.8261 21.9433 28.3922 22.8428 27.5362C23.7535 26.6696 24.2153 25.4935 24.2153 24.0403C24.2151 23.4797 24.1962 22.9266 24.159 22.3967Z" stroke="white" stroke-width="1.5"/>
<path d="M41.2125 14.4039C43.0539 14.4039 44.6484 13.7434 45.9513 12.4403C47.2542 11.1375 47.9146 9.54337 47.9146 7.70171C47.9146 5.8607 47.2542 4.26636 45.9511 2.96309C44.648 1.66045 43.0537 1 41.2125 1C39.3708 1 37.7767 1.66045 36.4738 2.9633C35.171 4.26615 34.5103 5.86048 34.5103 7.70171C34.5103 9.54337 35.171 11.1377 36.474 12.4406C37.7771 13.7432 39.3714 14.4039 41.2125 14.4039Z" fill="#00ACFF"/>
<path d="M52.9394 22.3967C52.9018 21.8545 52.8258 21.2631 52.7139 20.6385C52.601 20.0093 52.4556 19.4144 52.2815 18.8707C52.1017 18.3088 51.8571 17.7539 51.5548 17.2221C51.241 16.6701 50.8725 16.1895 50.459 15.794C50.0265 15.3802 49.497 15.0475 48.8848 14.8049C48.2747 14.5635 47.5985 14.4412 46.8752 14.4412C46.5912 14.4412 46.3164 14.5578 45.7859 14.9032C45.4594 15.1161 45.0775 15.3624 44.6512 15.6347C44.2867 15.867 43.7929 16.0846 43.183 16.2816C42.5879 16.4742 41.9837 16.5718 41.3874 16.5718C40.7911 16.5718 40.1871 16.4742 39.5914 16.2816C38.9821 16.0848 38.4883 15.8672 38.1242 15.635C37.702 15.3651 37.3198 15.1189 36.9884 14.903C36.4585 14.5576 36.1836 14.441 35.8996 14.441C35.1761 14.441 34.5001 14.5635 33.8902 14.8051C33.2784 15.0473 32.7487 15.38 32.3158 15.7942C31.9025 16.1899 31.5337 16.6703 31.2204 17.2221C30.9183 17.7539 30.6737 18.3086 30.4937 18.871C30.3198 19.4146 30.1744 20.0093 30.0615 20.6385C29.9496 21.2622 29.8736 21.8539 29.836 22.3974C29.7991 22.9298 29.7804 23.4824 29.7804 24.0405C29.7804 25.4931 30.2421 26.669 31.1527 27.5362C32.0519 28.3919 33.2419 28.8261 34.6889 28.8261H48.0872C49.5342 28.8261 50.7237 28.3922 51.6232 27.5362C52.5339 26.6696 52.9957 25.4935 52.9957 24.0403C52.9954 23.4797 52.9766 22.9266 52.9394 22.3967Z" fill="#00ACFF"/>
<path d="M41.2125 14.4039C43.0539 14.4039 44.6484 13.7434 45.9513 12.4403C47.2542 11.1375 47.9146 9.54337 47.9146 7.70171C47.9146 5.8607 47.2542 4.26636 45.9511 2.96309C44.648 1.66045 43.0537 1 41.2125 1C39.3708 1 37.7767 1.66045 36.4738 2.9633C35.171 4.26615 34.5103 5.86048 34.5103 7.70171C34.5103 9.54337 35.171 11.1377 36.474 12.4406C37.7771 13.7432 39.3714 14.4039 41.2125 14.4039Z" stroke="white" stroke-width="1.5"/>
<path d="M52.9394 22.3967C52.9018 21.8545 52.8258 21.2631 52.7139 20.6385C52.601 20.0093 52.4556 19.4144 52.2815 18.8707C52.1017 18.3088 51.8571 17.7539 51.5548 17.2221C51.241 16.6701 50.8725 16.1895 50.459 15.794C50.0265 15.3802 49.497 15.0475 48.8848 14.8049C48.2747 14.5635 47.5985 14.4412 46.8752 14.4412C46.5912 14.4412 46.3164 14.5578 45.7859 14.9032C45.4594 15.1161 45.0775 15.3624 44.6512 15.6347C44.2867 15.867 43.7929 16.0846 43.183 16.2816C42.5879 16.4742 41.9837 16.5718 41.3874 16.5718C40.7911 16.5718 40.1871 16.4742 39.5914 16.2816C38.9821 16.0848 38.4883 15.8672 38.1242 15.635C37.702 15.3651 37.3198 15.1189 36.9884 14.903C36.4585 14.5576 36.1836 14.441 35.8996 14.441C35.1761 14.441 34.5001 14.5635 33.8902 14.8051C33.2784 15.0473 32.7487 15.38 32.3158 15.7942C31.9025 16.1899 31.5337 16.6703 31.2204 17.2221C30.9183 17.7539 30.6737 18.3086 30.4937 18.871C30.3198 19.4146 30.1744 20.0093 30.0615 20.6385C29.9496 21.2622 29.8736 21.8539 29.836 22.3974C29.7991 22.9298 29.7804 23.4824 29.7804 24.0405C29.7804 25.4931 30.2421 26.669 31.1527 27.5362C32.0519 28.3919 33.2419 28.8261 34.6889 28.8261H48.0872C49.5342 28.8261 50.7237 28.3922 51.6232 27.5362C52.5339 26.6696 52.9957 25.4935 52.9957 24.0403C52.9954 23.4797 52.9766 22.9266 52.9394 22.3967Z" stroke="white" stroke-width="1.5"/>
<path d="M26.3451 18.5778C28.1866 18.5778 29.7811 17.9174 31.084 16.6143C32.3868 15.3114 33.0473 13.7173 33.0473 11.8757C33.0473 10.0346 32.3868 8.44031 31.0838 7.13704C29.7807 5.8344 28.1864 5.17395 26.3451 5.17395C24.5035 5.17395 22.9094 5.8344 21.6065 7.13725C20.3037 8.4401 19.643 10.0344 19.643 11.8757C19.643 13.7173 20.3037 15.3117 21.6067 16.6145C22.9098 17.9171 24.5041 18.5778 26.3451 18.5778Z" fill="#1AD03F"/>
<path d="M38.0721 26.5707C38.0345 26.0285 37.9585 25.437 37.8466 24.8125C37.7337 24.1832 37.5883 23.5884 37.4142 23.0447C37.2344 22.4828 36.9898 21.9278 36.6875 21.396C36.3737 20.844 36.0052 20.3634 35.5916 19.9679C35.1592 19.5541 34.6297 19.2215 34.0175 18.9788C33.4073 18.7375 32.7312 18.6152 32.0079 18.6152C31.7238 18.6152 31.4491 18.7317 30.9186 19.0771C30.5921 19.2901 30.2102 19.5363 29.7839 19.8087C29.4194 20.0409 28.9256 20.2585 28.3157 20.4556C27.7206 20.6481 27.1164 20.7458 26.5201 20.7458C25.9237 20.7458 25.3198 20.6481 24.7241 20.4556C24.1148 20.2588 23.621 20.0412 23.2569 19.8089C22.8346 19.5391 22.4525 19.2928 22.1211 19.0769C21.5912 18.7315 21.3163 18.615 21.0323 18.615C20.3088 18.615 19.6328 18.7375 19.0229 18.979C18.4111 19.2213 17.8814 19.5539 17.4485 19.9681C17.0352 20.3638 16.6664 20.8443 16.3531 21.396C16.051 21.9278 15.8064 22.4825 15.6264 23.0449C15.4525 23.5886 15.3071 24.1832 15.1942 24.8125C15.0823 25.4362 15.0063 26.0279 14.9687 26.5713C14.9318 27.1038 14.9131 27.6564 14.9131 28.2145C14.9131 29.667 15.3748 30.8429 16.2854 31.7101C17.1846 32.5659 18.3745 33 19.8215 33H33.2199C34.6669 33 35.8564 32.5661 36.7559 31.7101C37.6666 30.8435 38.1283 29.6674 38.1283 28.2143C38.1281 27.6536 38.1092 27.1006 38.0721 26.5707Z" fill="#1AD03F"/>
<path d="M26.3451 18.5778C28.1866 18.5778 29.7811 17.9174 31.084 16.6143C32.3868 15.3114 33.0473 13.7173 33.0473 11.8757C33.0473 10.0346 32.3868 8.44031 31.0838 7.13704C29.7807 5.8344 28.1864 5.17395 26.3451 5.17395C24.5035 5.17395 22.9094 5.8344 21.6065 7.13725C20.3037 8.4401 19.643 10.0344 19.643 11.8757C19.643 13.7173 20.3037 15.3117 21.6067 16.6145C22.9098 17.9171 24.5041 18.5778 26.3451 18.5778Z" stroke="white" stroke-width="1.5"/>
<path d="M38.0721 26.5707C38.0345 26.0285 37.9585 25.437 37.8466 24.8125C37.7337 24.1832 37.5883 23.5884 37.4142 23.0447C37.2344 22.4828 36.9898 21.9278 36.6875 21.396C36.3737 20.844 36.0052 20.3634 35.5916 19.9679C35.1592 19.5541 34.6297 19.2215 34.0175 18.9788C33.4073 18.7375 32.7312 18.6152 32.0079 18.6152C31.7238 18.6152 31.4491 18.7317 30.9186 19.0771C30.5921 19.2901 30.2102 19.5363 29.7839 19.8087C29.4194 20.0409 28.9256 20.2585 28.3157 20.4556C27.7206 20.6481 27.1164 20.7458 26.5201 20.7458C25.9237 20.7458 25.3198 20.6481 24.7241 20.4556C24.1148 20.2588 23.621 20.0412 23.2569 19.8089C22.8346 19.5391 22.4525 19.2928 22.1211 19.0769C21.5912 18.7315 21.3163 18.615 21.0323 18.615C20.3088 18.615 19.6328 18.7375 19.0229 18.979C18.4111 19.2213 17.8814 19.5539 17.4485 19.9681C17.0352 20.3638 16.6664 20.8443 16.3531 21.396C16.051 21.9278 15.8064 22.4825 15.6264 23.0449C15.4525 23.5886 15.3071 24.1832 15.1942 24.8125C15.0823 25.4362 15.0063 26.0279 14.9687 26.5713C14.9318 27.1038 14.9131 27.6564 14.9131 28.2145C14.9131 29.667 15.3748 30.8429 16.2854 31.7101C17.1846 32.5659 18.3745 33 19.8215 33H33.2199C34.6669 33 35.8564 32.5661 36.7559 31.7101C37.6666 30.8435 38.1283 29.6674 38.1283 28.2143C38.1281 27.6536 38.1092 27.1006 38.0721 26.5707Z" stroke="white" stroke-width="1.5"/>
</svg>
