<svg width="40" height="40" viewBox="0 0 40 40" fill="none" xmlns="http://www.w3.org/2000/svg">
<path d="M0 40L2.81667 29.7289C1.07649 26.726 0.161878 23.3104 0.161878 19.8219C0.169972 8.88709 9.06516 0 19.9919 0C25.2934 0 30.2792 2.06394 34.0186 5.81141C37.7661 9.55888 39.83 14.5366 39.8219 19.8381C39.8138 30.7649 30.9187 39.6601 19.9919 39.6601H19.9838C16.6653 39.6601 13.4035 38.8264 10.5059 37.2481L0 40Z" fill="black"/>
<path fill-rule="evenodd" clip-rule="evenodd" d="M14.8115 10.4024C14.423 9.54445 14.0183 9.52826 13.6541 9.51207C13.3546 9.49588 13.0147 9.50398 12.6667 9.50398C12.3267 9.50398 11.7682 9.63348 11.2988 10.1434C10.8294 10.6533 9.50195 11.8998 9.50195 14.4251C9.50195 16.9504 11.3393 19.3947 11.5983 19.7347C11.8573 20.0746 15.1515 25.4247 20.364 27.4805C24.7023 29.1883 25.5845 28.8484 26.5234 28.7674C27.4623 28.6865 29.5586 27.5291 29.9876 26.3312C30.4166 25.1333 30.4166 24.1054 30.2871 23.8949C30.1576 23.6845 29.8176 23.555 29.2996 23.296C28.7897 23.037 26.2644 21.7986 25.795 21.6286C25.3255 21.4586 24.9856 21.3696 24.6375 21.8876C24.2976 22.3975 23.3101 23.555 23.0107 23.8949C22.7112 24.2349 22.4117 24.2834 21.9018 24.0244C21.3919 23.7654 19.7326 23.2231 17.7739 21.4748C16.2442 20.1151 15.2162 18.4315 14.9168 17.9216C14.6173 17.4117 14.8844 17.1284 15.1434 16.8775C15.37 16.6509 15.6533 16.2786 15.9123 15.9791C16.1713 15.6796 16.2523 15.4692 16.4222 15.1211C16.5922 14.7812 16.5113 14.4817 16.3818 14.2227C16.2684 13.9556 15.2729 11.4222 14.8115 10.4024Z" fill="white"/>
</svg>
